<?xml version="1.0" encoding="utf-8"?>
<!-- Generator: Adobe Illustrator 19.2.1, SVG Export Plug-In . SVG Version: 6.00 Build 0)  -->
<svg height="100px" version="1.1" id="Layer_1" xmlns="http://www.w3.org/2000/svg" xmlns:xlink="http://www.w3.org/1999/xlink" x="0px" y="0px"
	 viewBox="0 0 450 135" style="enable-background:new 0 0 450 135;" xml:space="preserve">
<g>
	<path d="M46.4,11.3h-5.2c-2.5,0-4.7,2.1-4.7,4.7v38c0,3.4-2.8,6.2-6.2,6.2c-3.5,0-6.4-2.9-6.4-6.2V16c0-2.5-2.1-4.7-4.7-4.7H14
		c-2.5,0-4.7,2.1-4.7,4.7v38c0,8.9,5.4,16.6,13.7,19.6v45.7c0,2.7,2,4.7,4.7,4.7h5.2c2.5,0,4.7-2.1,4.7-4.7V73.6
		c8.1-3.1,13.5-10.7,13.5-19.6V16C51.1,13.5,48.9,11.3,46.4,11.3z" stroke="white"/>
	<path d="M108.2,11.3c-11.6,0-21,9.4-21,21v70.8c0,11.5,9.4,20.9,21,20.9c11.5,0,20.9-9.4,20.9-20.9V32.3
		C129.1,20.7,119.7,11.3,108.2,11.3z M114.4,103.1c0,3.4-2.8,6.2-6.2,6.2c-3.5,0-6.4-2.9-6.4-6.2V32.3c0-3.5,2.9-6.4,6.4-6.4
		c3.4,0,6.2,2.9,6.2,6.4V103.1z" stroke="white"/>
	<path d="M186.2,11.3c-11.6,0-21,9.4-21,21v87c0,2.7,2,4.7,4.7,4.7h5.2c2.7,0,4.7-2,4.7-4.7v-87c0-3.5,2.9-6.4,6.4-6.4
		c3.4,0,6.2,2.9,6.2,6.4v87c0,2.7,2,4.7,4.7,4.7h5.2c2.7,0,4.7-2,4.7-4.7v-87c0.1-5.6-2.1-10.8-6-14.8
		C197,13.5,191.8,11.3,186.2,11.3z" stroke="white"/>
	<path d="M280.4,11.3h-5.2c-2.5,0-4.7,2.1-4.7,4.7v38c0,3.4-2.8,6.2-6.2,6.2c-3.5,0-6.4-2.9-6.4-6.2V16c0-2.5-2.1-4.7-4.7-4.7H248
		c-2.5,0-4.7,2.1-4.7,4.7v38c0,8.9,5.4,16.6,13.7,19.6v45.7c0,2.7,2,4.7,4.7,4.7h5.2c2.5,0,4.7-2.1,4.7-4.7V73.6
		c8.1-3.1,13.5-10.7,13.5-19.6V16C285.1,13.5,282.9,11.3,280.4,11.3z" stroke="white"/>
	<path d="M353.2,11.3h-19.4c-3.9,0-7.3,3.3-7.3,7.3v100.7c0,2.7,2,4.7,4.7,4.7h5.2c2.7,0,4.7-2,4.7-4.7V75.1h12.1
		c2.5,0,4.7-2.1,4.7-4.7v-5.2c0-2.7-2-4.7-4.7-4.7h-12.1V26h12.1c2.7,0,4.7-2,4.7-4.7V16C357.9,13.5,355.7,11.3,353.2,11.3z" stroke="white"/>
	<path d="M436.4,11.3h-5.2c-2.5,0-4.7,2.1-4.7,4.7v38c0,3.4-2.8,6.2-6.2,6.2c-3.5,0-6.4-2.9-6.4-6.2V16c0-2.5-2.1-4.7-4.7-4.7H404
		c-2.5,0-4.7,2.1-4.7,4.7v38c0,8.9,5.4,16.6,13.7,19.6v45.7c0,2.7,2,4.7,4.7,4.7h5.2c2.5,0,4.7-2.1,4.7-4.7V73.6
		c8.1-3.1,13.5-10.7,13.5-19.6V16C441.1,13.5,438.9,11.3,436.4,11.3z" stroke="white"/>
</g>
</svg>
